<?xml version="1.0" standalone="no"?>
<!DOCTYPE svg PUBLIC "-//W3C//DTD SVG 20010904//EN"
 "http://www.w3.org/TR/2001/REC-SVG-20010904/DTD/svg10.dtd">
<svg version="1.0" xmlns="http://www.w3.org/2000/svg"
 width="1030.000000pt" height="1030.000000pt" viewBox="0 0 1030.000000 1030.000000"
 preserveAspectRatio="xMidYMid meet">
<metadata>
Created by potrace 1.11, written by Peter Selinger 2001-2013
</metadata>
<g transform="translate(0.000000,1030.000000) scale(0.100000,-0.100000)"
fill="#000000" stroke="none">
<path d="M2300 6460 l0 -1140 173 2 172 3 5 351 5 352 189 198 c103 110 191
200 195 201 3 1 145 -247 314 -552 l309 -555 388 0 388 0 45 133 c25 72 64
187 87 255 l42 122 432 0 431 0 69 -203 c38 -111 78 -226 88 -254 l19 -53 180
0 c111 0 179 4 179 10 0 5 -181 506 -401 1112 -221 607 -406 1115 -411 1131
l-10 28 -146 -3 -147 -3 -410 -1127 c-225 -621 -412 -1128 -416 -1128 -3 0
-184 306 -403 681 -272 465 -395 684 -388 692 5 7 164 203 354 437 189 234
347 431 352 438 6 9 -36 12 -196 12 l-204 0 -465 -581 -464 -580 -3 580 -2
581 -175 0 -175 0 0 -1140z m3070 -312 c0 -5 -146 -8 -325 -8 -236 0 -325 3
-325 11 0 7 73 230 162 498 l161 486 164 -490 c89 -269 163 -493 163 -497z"/>
<path d="M6252 6463 l3 -1138 172 -3 173 -2 2 810 3 810 508 -799 c280 -439
514 -804 520 -810 7 -7 65 -11 169 -11 l158 0 0 1140 0 1140 -175 0 -175 0 -2
-802 -3 -803 -510 802 -510 802 -168 1 -167 0 2 -1137z"/>
<path d="M2322 3963 l3 -1138 515 0 c387 0 531 3 580 13 156 32 324 150 403
283 127 215 119 522 -18 708 -48 65 -139 131 -209 152 -25 7 -46 16 -46 19 0
3 26 19 57 35 79 41 186 144 217 208 78 161 74 375 -10 546 -75 152 -215 252
-407 292 -83 17 -140 19 -590 19 l-497 0 2 -1137z m1022 798 c69 -27 123 -78
157 -147 20 -41 24 -64 24 -144 0 -79 -4 -103 -23 -142 -31 -62 -87 -119 -148
-149 -48 -24 -54 -24 -366 -27 l-318 -3 0 321 0 322 308 -4 c294 -4 310 -5
366 -27z m49 -969 c114 -56 172 -159 170 -302 -1 -119 -48 -214 -135 -272 -79
-54 -113 -58 -450 -58 l-308 0 0 336 0 335 328 -3 327 -3 68 -33z"/>
<path d="M4851 5078 c-57 -151 -805 -2219 -809 -2235 l-4 -23 180 0 180 0 39
113 c22 61 62 176 88 255 l49 142 432 0 431 0 88 -255 87 -255 180 0 181 0 -6
28 c-4 15 -188 527 -410 1137 l-404 1110 -147 3 c-144 2 -146 2 -155 -20z
m319 -934 c88 -263 160 -484 160 -491 0 -10 -70 -13 -325 -13 -179 0 -325 3
-325 7 0 13 324 982 328 979 1 -2 75 -219 162 -482z"/>
<path d="M6220 3960 l0 -1140 173 2 172 3 5 803 5 802 510 -802 511 -803 164
0 165 0 3 1138 2 1137 -175 0 -175 0 0 -807 c-1 -724 -2 -806 -16 -788 -8 11
-241 374 -517 808 l-501 787 -163 0 -163 0 0 -1140z"/>
</g>
</svg>
